<svg id="_Group_" data-name="&lt;Group&gt;" xmlns="http://www.w3.org/2000/svg" width="120" height="100" viewBox="0 0 267 267">
  <defs>
    <style>
      .cls-1 {
        fill: #263238;
      }

      .cls-1, .cls-2, .cls-3 {
        fill-rule: evenodd;
      }

      .cls-2 {
        fill: #f8922c;
      }

      .cls-3 {
        fill: #7f2719;
      }
    </style>
  </defs>
  <path id="Compound_Shape" data-name="Compound Shape" class="cls-1" d="M70.9,150.085a2.076,2.076,0,0,0-1.005-1.607,2.1,2.1,0,0,0-1.892-.13L38.953,160.8a33.306,33.306,0,0,0-20.2,30.64v54.394a2.083,2.083,0,1,0,4.167,0V191.439A29.134,29.134,0,0,1,40.6,164.632L67,153.316l7.971,92.7a2.08,2.08,0,0,0,2.071,1.905c0.061,0,.122,0,0.183-0.008a2.082,2.082,0,0,0,1.9-2.255Z"/>
  <path id="Compound_Shape-2" data-name="Compound Shape" class="cls-1" d="M212.5,210.417H172.917V191.439a33.307,33.307,0,0,0-20.2-30.64l-29.053-12.451a2.125,2.125,0,0,0-1.892.13,2.075,2.075,0,0,0-1.005,1.607l-8.223,95.569a2.081,2.081,0,0,0,1.9,2.255c0.061,0,.122.008,0.183,0.008a2.084,2.084,0,0,0,2.071-1.905l7.975-92.7,26.4,11.316a29.134,29.134,0,0,1,17.68,26.807V212.5a2.082,2.082,0,0,0,2.083,2.083h39.584V243.75H158.333A18.771,18.771,0,0,1,139.583,225V212.5a2.083,2.083,0,0,0-4.166,0V225a22.945,22.945,0,0,0,22.916,22.917H212.5a2.082,2.082,0,0,0,2.083-2.084V212.5A2.081,2.081,0,0,0,212.5,210.417Z"/>
  <path id="Compound_Shape-3" data-name="Compound Shape" class="cls-1" d="M263.322,212.9a6.2,6.2,0,0,0-4.993-2.486h-37.5a2.083,2.083,0,1,0,0,4.166h37.5a2.087,2.087,0,0,1,2.006,2.657l-4.659,16.3a8.371,8.371,0,0,1-8.012,6.042H220.833a2.084,2.084,0,0,0,0,4.167h26.831a12.547,12.547,0,0,0,12.016-9.062l4.659-16.3A6.2,6.2,0,0,0,263.322,212.9Z"/>
  <g id="_Group_2" data-name="&lt;Group&gt;">
    <path id="Compound_Shape-4" data-name="Compound Shape" class="cls-1" d="M50.932,104.081a2.351,2.351,0,0,1,2.3,1.579,43.708,43.708,0,0,0,85.2,0,2.034,2.034,0,0,1,2.283-1.6,7.971,7.971,0,0,0,.952.106,8.334,8.334,0,0,0,0-16.667,4.228,4.228,0,0,0-.562.057,2.478,2.478,0,0,1-2.673-1.55,43.708,43.708,0,0,0-85.2,0,2.1,2.1,0,0,1-2.262,1.6A8.907,8.907,0,0,0,50,87.5a8.334,8.334,0,0,0,0,16.667,4.558,4.558,0,0,0,.623-0.065A2.419,2.419,0,0,1,50.932,104.081Zm44.9,39.669a47.636,47.636,0,0,1-46.228-35.425,12.5,12.5,0,0,1,0-24.984,47.875,47.875,0,0,1,92.456,0,12.5,12.5,0,0,1,0,24.984A47.635,47.635,0,0,1,95.833,143.75Z"/>
  </g>
  <g id="_Group_3" data-name="&lt;Group&gt;">
    <path id="Compound_Shape-5" data-name="Compound Shape" class="cls-2" d="M54.167,91.667H52.084V64.584h12.5V81.251A10.417,10.417,0,0,1,54.167,91.667Z"/>
    <path id="Compound_Shape-6" data-name="Compound Shape" class="cls-1" d="M54.167,66.667V89.583A8.344,8.344,0,0,0,62.5,81.25V66.667H54.167Zm0,22.917h0Zm0,4.167H52.083A2.082,2.082,0,0,1,50,91.667V64.583A2.082,2.082,0,0,1,52.083,62.5h12.5a2.082,2.082,0,0,1,2.083,2.083V81.25A12.514,12.514,0,0,1,54.167,93.75Z"/>
  </g>
  <g id="_Group_4" data-name="&lt;Group&gt;">
    <path id="Compound_Shape-7" data-name="Compound Shape" class="cls-2" d="M127.084,64.374V81.251A10.416,10.416,0,0,0,137.5,91.667h2.084V58.6A20.715,20.715,0,0,1,127.084,64.374Z"/>
    <path id="Compound_Shape-8" data-name="Compound Shape" class="cls-1" d="M129.167,66.183V81.25a8.344,8.344,0,0,0,8.333,8.333V62.911A23.149,23.149,0,0,1,129.167,66.183ZM139.583,93.75H137.5A12.514,12.514,0,0,1,125,81.25V64.376a2.08,2.08,0,0,1,1.876-2.071,18.77,18.77,0,0,0,11.247-5.184,2.084,2.084,0,0,1,3.544,1.485V91.667A2.082,2.082,0,0,1,139.583,93.75Z"/>
  </g>
  <path id="Compound_Shape-9" data-name="Compound Shape" class="cls-1" d="M112.036,109.094a2.082,2.082,0,0,0-2.946,0,18.772,18.772,0,0,1-26.514,0,2.083,2.083,0,0,0-2.946,2.946,22.937,22.937,0,0,0,32.406,0A2.082,2.082,0,0,0,112.036,109.094Z"/>
  <g id="_Group_5" data-name="&lt;Group&gt;">
    <path id="Compound_Shape-10" data-name="Compound Shape" class="cls-2" d="M125,64.584H52.084a31.25,31.25,0,0,1,31.25-31.25h21.689a62.5,62.5,0,0,0,26.191-5.753l14.62-6.747V43.751A20.834,20.834,0,0,1,125,64.584Z"/>
    <path id="Compound_Shape-11" data-name="Compound Shape" class="cls-1" d="M54.24,62.5H125a18.771,18.771,0,0,0,18.75-18.75V24.089l-11.662,5.383a64.992,64.992,0,0,1-27.067,5.945H83.333A29.21,29.21,0,0,0,54.24,62.5ZM125,66.667H52.083A2.082,2.082,0,0,1,50,64.583,33.371,33.371,0,0,1,83.333,31.25h21.688a60.8,60.8,0,0,0,25.318-5.562l14.619-6.747a2.086,2.086,0,0,1,2.959,1.892V43.75A22.946,22.946,0,0,1,125,66.667Z"/>
  </g>
  <g id="_Group_6" data-name="&lt;Group&gt;">
    <path id="Compound_Shape-12" data-name="Compound Shape" class="cls-3" d="M106.25,233.6L95.834,245.834,85.417,233.6l6.25-62.761H100Z"/>
    <path id="Compound_Shape-13" data-name="Compound Shape" class="cls-1" d="M87.577,232.918l8.256,9.7,8.256-9.7-5.977-60H93.555Zm8.256,15a2.087,2.087,0,0,1-1.587-.733L83.83,234.945a2.084,2.084,0,0,1-.484-1.559l6.25-62.76a2.08,2.08,0,0,1,2.071-1.876H100a2.08,2.08,0,0,1,2.071,1.876l6.25,62.76a2.085,2.085,0,0,1-.484,1.559L97.42,247.184A2.086,2.086,0,0,1,95.833,247.917Z"/>
  </g>
  <path id="Compound_Shape-14" data-name="Compound Shape" class="cls-1" d="M54.167,202.083a2.082,2.082,0,0,0-2.083,2.084v41.666a2.083,2.083,0,1,0,4.167,0V204.167A2.082,2.082,0,0,0,54.167,202.083Z"/>
  <path id="Compound_Shape-15" data-name="Compound Shape" class="cls-1" d="M137.5,202.083a2.082,2.082,0,0,0-2.083,2.084v41.666a2.083,2.083,0,1,0,4.166,0V204.167A2.082,2.082,0,0,0,137.5,202.083Z"/>
  <g id="_Group_7" data-name="&lt;Group&gt;">
    <path id="Compound_Shape-16" data-name="Compound Shape" class="cls-1" d="M71.029,151.587l1.294,15.356,12.341-9.106-6.27-9.408Zm-0.468,21.33a2.03,2.03,0,0,1-.859-0.188,2.072,2.072,0,0,1-1.217-1.721l-1.733-20.569a2.084,2.084,0,0,1,1.253-2.091l10.339-4.431a2.094,2.094,0,0,1,2.555.761l8.333,12.5a2.081,2.081,0,0,1-.5,2.832L71.8,172.51A2.089,2.089,0,0,1,70.561,172.917Z"/>
  </g>
  <g id="_Group_8" data-name="&lt;Group&gt;">
    <path id="Compound_Shape-17" data-name="Compound Shape" class="cls-1" d="M107,157.837l12.313,9.106,1.322-15.356-7.361-3.158Zm14.07,15.08a2.081,2.081,0,0,1-1.237-.407l-16.9-12.5a2.087,2.087,0,0,1-.5-2.832l8.334-12.5a2.089,2.089,0,0,1,2.555-.761l10.339,4.431a2.086,2.086,0,0,1,1.254,2.1l-1.77,20.568a2.09,2.09,0,0,1-1.217,1.722A2.119,2.119,0,0,1,121.069,172.917Z"/>
  </g>
  <g id="_Group_9" data-name="&lt;Group&gt;">
    <path id="Compound_Shape-18" data-name="Compound Shape" class="cls-1" d="M91.667,160.417a2.087,2.087,0,0,0-2.083,2.083v4.167a2.087,2.087,0,0,0,2.083,2.083H100a2.087,2.087,0,0,0,2.083-2.083V162.5A2.087,2.087,0,0,0,100,160.417H91.667Zm8.333,12.5H91.667a6.257,6.257,0,0,1-6.25-6.25V162.5a6.257,6.257,0,0,1,6.25-6.25H100a6.257,6.257,0,0,1,6.25,6.25v4.167A6.257,6.257,0,0,1,100,172.917Z"/>
  </g>
  <g id="_Group_10" data-name="&lt;Group&gt;">
    <path id="Compound_Shape-19" data-name="Compound Shape" class="cls-1" d="M81.25,145.2l7.776,11.661a6.056,6.056,0,0,1,2.641-.614H100a6.043,6.043,0,0,1,2.641.614l7.776-11.661v-3.752a47.6,47.6,0,0,1-29.167,0V145.2Zm7.267,16.74a0.868,0.868,0,0,1-.114-0.005,2.082,2.082,0,0,1-1.619-.923l-9.351-14.026a2.087,2.087,0,0,1-.35-1.156V138.5a2.087,2.087,0,0,1,2.844-1.941,43.463,43.463,0,0,0,31.811,0,2.086,2.086,0,0,1,2.844,1.941v7.336a2.086,2.086,0,0,1-.35,1.156l-9.35,14.026a2.078,2.078,0,0,1-1.62.923,1.929,1.929,0,0,1-1.713-.744,2.052,2.052,0,0,0-1.55-.777H91.667a2.059,2.059,0,0,0-1.554.781A2.082,2.082,0,0,1,88.517,161.943Z"/>
  </g>
  <path id="Compound_Shape-20" data-name="Compound Shape" class="cls-1" d="M47.917,137.5H16.667a2.084,2.084,0,0,0,0,4.167h31.25A2.084,2.084,0,0,0,47.917,137.5Z"/>
  <path id="Compound_Shape-21" data-name="Compound Shape" class="cls-1" d="M8.333,137.5H4.167a2.084,2.084,0,0,0,0,4.167H8.333A2.084,2.084,0,0,0,8.333,137.5Z"/>
  <path id="Compound_Shape-22" data-name="Compound Shape" class="cls-1" d="M218.75,72.917H202.083a2.083,2.083,0,0,0,0,4.167H218.75A2.083,2.083,0,0,0,218.75,72.917Z"/>
  <path id="Compound_Shape-23" data-name="Compound Shape" class="cls-1" d="M210.417,64.583a2.082,2.082,0,0,0-2.084,2.083V83.333a2.084,2.084,0,0,0,4.167,0V66.667A2.082,2.082,0,0,0,210.417,64.583Z"/>
  <path id="Compound_Shape-24" data-name="Compound Shape" class="cls-1" d="M193.75,93.75H177.083a2.083,2.083,0,0,0,0,4.167H193.75A2.083,2.083,0,0,0,193.75,93.75Z"/>
  <path id="Compound_Shape-25" data-name="Compound Shape" class="cls-1" d="M185.417,85.417a2.082,2.082,0,0,0-2.084,2.083v16.667a2.084,2.084,0,0,0,4.167,0V87.5A2.082,2.082,0,0,0,185.417,85.417Z"/>
</svg>
