<svg id="_Group_" data-name="&lt;Group&gt;" xmlns="http://www.w3.org/2000/svg" width="120" height="100" viewBox="0 0 267 267">
  <defs>
    <style>
      .cls-1 {
        fill: #263238;
      }

      .cls-1, .cls-2, .cls-4 {
        fill-rule: evenodd;
      }

      .cls-2 {
        fill: #f8922c;
      }

      .cls-3 {
        fill: #7f2719;
      }

      .cls-4 {
        fill: #fff;
      }
    </style>
  </defs>
  <g id="_Group_2" data-name="&lt;Group&gt;">
    <path id="Compound_Shape" data-name="Compound Shape" class="cls-1" d="M118.75,172.917a8.342,8.342,0,0,0-8.333,8.333v29.167a8.342,8.342,0,0,0,8.333,8.333h41.667V172.917H118.75Zm43.75,50H118.75a12.514,12.514,0,0,1-12.5-12.5V181.25a12.514,12.514,0,0,1,12.5-12.5H162.5a2.082,2.082,0,0,1,2.083,2.083v50A2.082,2.082,0,0,1,162.5,222.917Z"/>
  </g>
  <g id="_Group_3" data-name="&lt;Group&gt;">
    <path id="Compound_Shape-2" data-name="Compound Shape" class="cls-1" d="M164.583,219.271l45.834,13.369V159.027L164.583,172.4v46.875ZM212.5,237.5a2.032,2.032,0,0,1-.582-0.083l-50-14.584a2.081,2.081,0,0,1-1.5-2v-50a2.082,2.082,0,0,1,1.5-2l50-14.583a2.084,2.084,0,0,1,2.665,2v79.167A2.085,2.085,0,0,1,212.5,237.5Z"/>
  </g>
  <g id="_Group_4" data-name="&lt;Group&gt;">
    <path id="Compound_Shape-3" data-name="Compound Shape" class="cls-1" d="M127.083,222.917v35.416a2.087,2.087,0,0,0,2.084,2.084h16.666a2.087,2.087,0,0,0,2.084-2.084V222.917H127.083Zm18.75,41.666H129.167a6.256,6.256,0,0,1-6.25-6.25v-37.5A2.082,2.082,0,0,1,125,218.75h25a2.082,2.082,0,0,1,2.083,2.083v37.5A6.256,6.256,0,0,1,145.833,264.583Z"/>
  </g>
  <g id="_Group_5" data-name="&lt;Group&gt;">
    <path id="Compound_Shape-4" data-name="Compound Shape" class="cls-2" d="M225,243.749h-8.333a4.166,4.166,0,0,1-4.167-4.166v-87.5a4.167,4.167,0,0,1,4.167-4.167H225a4.167,4.167,0,0,1,4.167,4.167v87.5A4.167,4.167,0,0,1,225,243.749Z"/>
    <path id="Compound_Shape-5" data-name="Compound Shape" class="cls-1" d="M216.667,150a2.086,2.086,0,0,0-2.084,2.083v87.5a2.087,2.087,0,0,0,2.084,2.084H225a2.086,2.086,0,0,0,2.083-2.084v-87.5A2.086,2.086,0,0,0,225,150h-8.333ZM225,245.833h-8.333a6.256,6.256,0,0,1-6.25-6.25v-87.5a6.257,6.257,0,0,1,6.25-6.25H225a6.257,6.257,0,0,1,6.25,6.25v87.5A6.257,6.257,0,0,1,225,245.833Z"/>
  </g>
  <path id="Compound_Shape-6" data-name="Compound Shape" class="cls-1" d="M258.333,193.75H241.667a2.084,2.084,0,1,0,0,4.167h16.666A2.084,2.084,0,1,0,258.333,193.75Z"/>
  <path id="Compound_Shape-7" data-name="Compound Shape" class="cls-1" d="M255.9,173.844a2.081,2.081,0,0,0-2.889-.577l-12.5,8.333a2.083,2.083,0,1,0,2.311,3.467l12.5-8.334A2.083,2.083,0,0,0,255.9,173.844Z"/>
  <path id="Compound_Shape-8" data-name="Compound Shape" class="cls-1" d="M255.322,214.933l-12.5-8.333a2.083,2.083,0,0,0-2.311,3.467l12.5,8.333A2.083,2.083,0,1,0,255.322,214.933Z"/>
  <path id="Compound_Shape-9" data-name="Compound Shape" class="cls-1" d="M208.333,70.833h-200A2.082,2.082,0,0,0,6.25,72.917V195.833a12.514,12.514,0,0,0,12.5,12.5H100a2.083,2.083,0,0,0,0-4.166H18.75a8.343,8.343,0,0,1-8.333-8.334V75H206.25v64.583a2.084,2.084,0,1,0,4.167,0V72.917A2.082,2.082,0,0,0,208.333,70.833Z"/>
  <g id="_Group_6" data-name="&lt;Group&gt;">
    <path id="Compound_Shape-10" data-name="Compound Shape" class="cls-1" d="M10.417,70.833H206.25V50a8.343,8.343,0,0,0-8.333-8.333H18.75A8.343,8.343,0,0,0,10.417,50V70.833ZM208.333,75h-200A2.082,2.082,0,0,1,6.25,72.917V50a12.514,12.514,0,0,1,12.5-12.5H197.917a12.514,12.514,0,0,1,12.5,12.5V72.917A2.082,2.082,0,0,1,208.333,75Z"/>
  </g>
  <g id="_Group_7" data-name="&lt;Group&gt;">
    <path id="Compound_Shape-11" data-name="Compound Shape" class="cls-1" d="M27.083,52.083A4.167,4.167,0,1,0,31.25,56.25,4.171,4.171,0,0,0,27.083,52.083Zm0,12.5a8.333,8.333,0,1,1,8.333-8.333A8.343,8.343,0,0,1,27.083,64.583Z"/>
  </g>
  <g id="_Group_8" data-name="&lt;Group&gt;">
    <path id="Compound_Shape-12" data-name="Compound Shape" class="cls-1" d="M47.917,52.083a4.167,4.167,0,1,0,4.167,4.167A4.171,4.171,0,0,0,47.917,52.083Zm0,12.5A8.333,8.333,0,1,1,56.25,56.25,8.343,8.343,0,0,1,47.917,64.583Z"/>
  </g>
  <path id="Compound_Shape-13" data-name="Compound Shape" class="cls-1" d="M212.5,10.417H195.833a2.083,2.083,0,0,0,0,4.167H212.5A2.083,2.083,0,0,0,212.5,10.417Z"/>
  <path id="Compound_Shape-14" data-name="Compound Shape" class="cls-1" d="M204.167,2.083a2.082,2.082,0,0,0-2.084,2.083V20.833a2.084,2.084,0,0,0,4.167,0V4.167A2.082,2.082,0,0,0,204.167,2.083Z"/>
  <path id="Compound_Shape-15" data-name="Compound Shape" class="cls-1" d="M241.667,37.5H225a2.083,2.083,0,0,0,0,4.167h16.667A2.083,2.083,0,0,0,241.667,37.5Z"/>
  <path id="Compound_Shape-16" data-name="Compound Shape" class="cls-1" d="M233.333,29.167a2.082,2.082,0,0,0-2.083,2.083V47.917a2.084,2.084,0,0,0,4.167,0V31.25A2.082,2.082,0,0,0,233.333,29.167Z"/>
  <path id="Compound_Shape-17" data-name="Compound Shape" class="cls-1" d="M41.667,220.833H33.333a2.084,2.084,0,0,0,0,4.167h8.333A2.084,2.084,0,0,0,41.667,220.833Z"/>
  <path id="Compound_Shape-18" data-name="Compound Shape" class="cls-1" d="M91.667,220.833H50A2.084,2.084,0,0,0,50,225H91.667A2.084,2.084,0,0,0,91.667,220.833Z"/>
  <path id="Compound_Shape-19" data-name="Compound Shape" class="cls-1" d="M166.667,20.833h-8.334a2.083,2.083,0,0,0,0,4.167h8.334A2.083,2.083,0,0,0,166.667,20.833Z"/>
  <path id="Compound_Shape-20" data-name="Compound Shape" class="cls-1" d="M150,20.833H66.667a2.083,2.083,0,1,0,0,4.167H150A2.083,2.083,0,0,0,150,20.833Z"/>
  <g id="_Group_9" data-name="&lt;Group&gt;">
    <circle id="Compound_Shape-21" data-name="Compound Shape" class="cls-3" cx="66.656" cy="139.594" r="37.5"/>
    <path id="Compound_Shape-22" data-name="Compound Shape" class="cls-1" d="M66.667,104.167a35.417,35.417,0,1,0,35.416,35.416A35.457,35.457,0,0,0,66.667,104.167Zm0,75a39.584,39.584,0,1,1,39.583-39.584A39.628,39.628,0,0,1,66.667,179.167Z"/>
  </g>
  <g id="_Group_10" data-name="&lt;Group&gt;">
    <path id="Compound_Shape-23" data-name="Compound Shape" class="cls-4" d="M79.847,136.078L62.552,124.96a4.166,4.166,0,0,0-6.42,3.505V150.7a4.167,4.167,0,0,0,6.42,3.5l17.295-11.118A4.167,4.167,0,0,0,79.847,136.078Z"/>
    <path id="Compound_Shape-24" data-name="Compound Shape" class="cls-1" d="M60.315,126.373a2.153,2.153,0,0,0-1.013.263,2.038,2.038,0,0,0-1.087,1.829V150.7a2.082,2.082,0,0,0,3.211,1.752l17.293-11.117a2.084,2.084,0,0,0,0-3.5h0L61.426,126.711A2.024,2.024,0,0,0,60.315,126.373Zm-0.008,30.591a6.286,6.286,0,0,1-6.258-6.264V128.465a6.253,6.253,0,0,1,9.631-5.259l17.293,11.12a6.249,6.249,0,0,1,0,10.512L63.68,155.957A6.226,6.226,0,0,1,60.307,156.964Z"/>
  </g>
  <g id="_Group_11" data-name="&lt;Group&gt;">
    <path id="Compound_Shape-25" data-name="Compound Shape" class="cls-2" d="M187.5,114.583H125v-12.5h62.5v12.5Z"/>
    <path id="Compound_Shape-26" data-name="Compound Shape" class="cls-1" d="M127.083,112.5h58.334v-8.333H127.083V112.5Zm60.417,4.167H125a2.082,2.082,0,0,1-2.083-2.084v-12.5A2.082,2.082,0,0,1,125,100h62.5a2.082,2.082,0,0,1,2.083,2.083v12.5A2.082,2.082,0,0,1,187.5,116.667Z"/>
  </g>
  <g id="_Group_12" data-name="&lt;Group&gt;">
    <path id="Compound_Shape-27" data-name="Compound Shape" class="cls-2" d="M162.5,139.583H125v-12.5h37.5v12.5Z"/>
    <path id="Compound_Shape-28" data-name="Compound Shape" class="cls-1" d="M127.083,137.5h33.334v-8.333H127.083V137.5Zm35.417,4.167H125a2.082,2.082,0,0,1-2.083-2.084v-12.5A2.082,2.082,0,0,1,125,125h37.5a2.082,2.082,0,0,1,2.083,2.083v12.5A2.082,2.082,0,0,1,162.5,141.667Z"/>
  </g>
</svg>
