<?xml version="1.0" standalone="no"?><svg xmlns="http://www.w3.org/2000/svg" viewBox="0 0 1440 320"><path fill="#ffedd5" fill-opacity="0.29" d="M0,128L10.9,112C21.8,96,44,64,65,48C87.3,32,109,32,131,48C152.7,64,175,96,196,117.3C218.2,139,240,149,262,133.3C283.6,117,305,75,327,80C349.1,85,371,139,393,149.3C414.5,160,436,128,458,133.3C480,139,502,181,524,197.3C545.5,213,567,203,589,202.7C610.9,203,633,213,655,213.3C676.4,213,698,203,720,218.7C741.8,235,764,277,785,288C807.3,299,829,277,851,245.3C872.7,213,895,171,916,176C938.2,181,960,235,982,250.7C1003.6,267,1025,245,1047,240C1069.1,235,1091,245,1113,218.7C1134.5,192,1156,128,1178,101.3C1200,75,1222,85,1244,80C1265.5,75,1287,53,1309,53.3C1330.9,53,1353,75,1375,69.3C1396.4,64,1418,32,1429,16L1440,0L1440,0L1429.1,0C1418.2,0,1396,0,1375,0C1352.7,0,1331,0,1309,0C1287.3,0,1265,0,1244,0C1221.8,0,1200,0,1178,0C1156.4,0,1135,0,1113,0C1090.9,0,1069,0,1047,0C1025.5,0,1004,0,982,0C960,0,938,0,916,0C894.5,0,873,0,851,0C829.1,0,807,0,785,0C763.6,0,742,0,720,0C698.2,0,676,0,655,0C632.7,0,611,0,589,0C567.3,0,545,0,524,0C501.8,0,480,0,458,0C436.4,0,415,0,393,0C370.9,0,349,0,327,0C305.5,0,284,0,262,0C240,0,218,0,196,0C174.5,0,153,0,131,0C109.1,0,87,0,65,0C43.6,0,22,0,11,0L0,0Z"></path></svg>