<svg id="wave" style="transform:rotate(180deg); transition: 0.3s" viewBox="0 0 1440 340" version="1.1" xmlns="http://www.w3.org/2000/svg"><defs><linearGradient id="sw-gradient-0" x1="0" x2="0" y1="1" y2="0"><stop stop-color="rgba(255, 255, 255, 1)" offset="0%"></stop><stop stop-color="rgba(250.816, 239.833, 226.103, 1)" offset="100%"></stop></linearGradient></defs><path style="transform:translate(0, 0px); opacity:1" fill="url(#sw-gradient-0)" d="M0,306L40,266.3C80,227,160,147,240,141.7C320,136,400,204,480,238C560,272,640,272,720,260.7C800,249,880,227,960,221C1040,215,1120,227,1200,243.7C1280,261,1360,283,1440,243.7C1520,204,1600,102,1680,102C1760,102,1840,204,1920,221C2000,238,2080,170,2160,130.3C2240,91,2320,79,2400,102C2480,125,2560,181,2640,181.3C2720,181,2800,125,2880,130.3C2960,136,3040,204,3120,238C3200,272,3280,272,3360,272C3440,272,3520,272,3600,277.7C3680,283,3760,295,3840,289C3920,283,4000,261,4080,226.7C4160,193,4240,147,4320,158.7C4400,170,4480,238,4560,226.7C4640,215,4720,125,4800,113.3C4880,102,4960,170,5040,170C5120,170,5200,102,5280,73.7C5360,45,5440,57,5520,68C5600,79,5680,91,5720,96.3L5760,102L5760,340L5720,340C5680,340,5600,340,5520,340C5440,340,5360,340,5280,340C5200,340,5120,340,5040,340C4960,340,4880,340,4800,340C4720,340,4640,340,4560,340C4480,340,4400,340,4320,340C4240,340,4160,340,4080,340C4000,340,3920,340,3840,340C3760,340,3680,340,3600,340C3520,340,3440,340,3360,340C3280,340,3200,340,3120,340C3040,340,2960,340,2880,340C2800,340,2720,340,2640,340C2560,340,2480,340,2400,340C2320,340,2240,340,2160,340C2080,340,2000,340,1920,340C1840,340,1760,340,1680,340C1600,340,1520,340,1440,340C1360,340,1280,340,1200,340C1120,340,1040,340,960,340C880,340,800,340,720,340C640,340,560,340,480,340C400,340,320,340,240,340C160,340,80,340,40,340L0,340Z"></path></svg>